<?xml version="1.0" standalone="no"?>
<!DOCTYPE svg PUBLIC "-//W3C//DTD SVG 20010904//EN"
 "http://www.w3.org/TR/2001/REC-SVG-20010904/DTD/svg10.dtd">
<svg version="1.0" xmlns="http://www.w3.org/2000/svg"
 width="1000.000000pt" height="1000.000000pt" viewBox="0 0 1000.000000 1000.000000"
 preserveAspectRatio="xMidYMid meet">
<metadata>
Created by potrace 1.14, written by Peter Selinger 2001-2017
</metadata>
<g transform="translate(0.000000,1000.000000) scale(0.100000,-0.100000)"
fill="#000000" stroke="none">
<path d="M0 5000 l0 -5000 5000 0 5000 0 0 5000 0 5000 -5000 0 -5000 0 0
-5000z m3335 2627 c140 -67 230 -189 254 -345 21 -138 -32 -287 -137 -383 -97
-89 -202 -125 -335 -116 -260 18 -456 273 -403 527 20 94 68 180 134 241 98
89 187 121 324 115 75 -3 98 -8 163 -39z m3082 -15 c230 -72 359 -310 295
-544 -60 -215 -284 -359 -497 -319 -406 74 -510 597 -164 817 100 63 250 82
366 46z m1729 -2127 c255 -96 368 -404 263 -725 -87 -269 -311 -574 -624 -850
-97 -86 -306 -255 -440 -357 -214 -162 -390 -244 -755 -353 -58 -17 -202 -62
-320 -100 -413 -133 -859 -275 -935 -297 -27 -8 -77 -23 -110 -33 -53 -17
-131 -38 -160 -44 -5 -2 -30 -8 -54 -15 -47 -13 -251 -56 -311 -65 -19 -2 -54
-7 -77 -11 -218 -31 -615 -31 -915 0 -395 41 -756 157 -1087 348 -164 94 -292
192 -536 412 -55 49 -132 117 -170 150 -297 254 -551 556 -666 790 -127 259
-128 508 -5 684 137 196 364 250 586 139 109 -54 225 -168 368 -360 147 -198
203 -260 392 -432 475 -433 632 -536 942 -620 208 -57 348 -71 673 -70 285 1
453 28 740 115 153 47 514 162 765 244 124 40 286 92 360 115 372 114 448 144
595 233 161 98 456 341 566 468 53 60 151 194 244 334 52 79 198 224 257 257
146 81 277 95 414 43z"/>
</g>
</svg>
